<svg xmlns="http://www.w3.org/2000/svg" style="display: none;">
    <!-- itemProduit -->
    <symbol id="edit" viewBox="0 0 24 24" fill="none" stroke="currentColor" stroke-width="1.5">
        <path stroke-linecap="round" stroke-linejoin="round"
            d="m16.862 4.487 1.687-1.688a1.875 1.875 0 1 1 2.652 2.652L10.582 16.07a4.5 4.5 0 0 1-1.897 1.13L6 18l.8-2.685a4.5 4.5 0 0 1 1.13-1.897l8.932-8.931Zm0 0L19.5 7.125M18 14v4.75A2.25 2.25 0 0 1 15.75 21H5.25A2.25 2.25 0 0 1 3 18.75V8.25A2.25 2.25 0 0 1 5.25 6H10" />
    </symbol>

    <symbol id="check" viewBox="0 0 24 24" fill="none" stroke="currentColor" stroke-width="1.5">
        <path stroke-linecap="round" stroke-linejoin="round" d="m4.5 12.75 6 6 9-13.5" />
    </symbol>
    <!-- produitDashboard -->
    <symbol id="add" viewBox="0 0 24 24" fill="none" stroke="currentColor" stroke-width="1.5">
        <path stroke-linecap="round" stroke-linejoin="round" d="M12 4.5v15m7.5-7.5h-15" />
    </symbol>

    <symbol id="options" viewBox="0 0 24 24" fill="none" stroke="currentColor" stroke-width="1.5">
        <path stroke-linecap="round" stroke-linejoin="round"
              d="M3.75 6.75h16.5M3.75 12h16.5m-16.5 5.25h16.5" />
    </symbol>

    <symbol id="xMark" viewBox="0 0 24 24" fill="none" stroke="currentColor" stroke-width="1.5">
        <path stroke-linecap="round" stroke-linejoin="round"
              d="M6 18 18 6M6 6l12 12" />
    </symbol>

    <symbol id="shoppingCart" viewBox="0 0 24 24" fill="none" stroke="currentColor"
        stroke-width="1.5">
        <path stroke-linecap="round" stroke-linejoin="round"
            d="M2.25 3h1.386c.51 0 .955.343 1.087.835l.383 1.437M7.5 14.25a3 3 0 0 0-3 3h15.75m-12.75-3h11.218c1.121-2.3 2.1-4.684 2.924-7.138a60.114 60.114 0 0 0-16.536-1.84M7.5 14.25 5.106 5.272M6 20.25a.75.75 0 1 1-1.5 0 .75.75 0 0 1 1.5 0Zm12.75 0a.75.75 0 1 1-1.5 0 .75.75 0 0 1 1.5 0Z" />
    </symbol>

    <symbol id="alert" viewBox="0 0 24 24" fill="none" stroke="currentColor"
        stroke-width="1.5">
        <path stroke-linecap="round" stroke-linejoin="round"
            d="M14.857 17.082a23.848 23.848 0 0 0 5.454-1.31A8.967 8.967 0 0 1 18 9.75V9A6 6 0 0 0 6 9v.75a8.967 8.967 0 0 1-2.312 6.022c1.733.64 3.56 1.085 5.455 1.31m5.714 0a24.255 24.255 0 0 1-5.714 0m5.714 0a3 3 0 1 1-5.714 0M3.124 7.5A8.969 8.969 0 0 1 5.292 3m13.416 0a8.969 8.969 0 0 1 2.168 4.5" />
    </symbol>

    <symbol id="profil" viewBox="0 0 24 24" fill="none" stroke="currentColor"
            stroke-width="1.5">
        <path stroke-linecap="round" stroke-linejoin="round"
              d="M15.75 6a3.75 3.75 0 1 1-7.5 0 3.75 3.75 0 0 1 7.5 0ZM4.501 20.118a7.5 7.5 0 0 1 14.998 0A17.933 17.933 0 0 1 12 21.75c-2.676 0-5.216-.584-7.499-1.632Z" />
    </symbol>

    <symbol id="family" viewBox="0 0 24 24" fill="none" stroke="currentColor"
            stroke-width="1.5">
        <path stroke-linecap="round" stroke-linejoin="round"
              d="M18 18.72a9.094 9.094 0 0 0 3.741-.479 3 3 0 0 0-4.682-2.72m.94 3.198.001.031c0 .225-.012.447-.037.666A11.944 11.944 0 0 1 12 21c-2.17 0-4.207-.576-5.963-1.584A6.062 6.062 0 0 1 6 18.719m12 0a5.971 5.971 0 0 0-.941-3.197m0 0A5.995 5.995 0 0 0 12 12.75a5.995 5.995 0 0 0-5.058 2.772m0 0a3 3 0 0 0-4.681 2.72 8.986 8.986 0 0 0 3.74.477m.94-3.197a5.971 5.971 0 0 0-.94 3.197M15 6.75a3 3 0 1 1-6 0 3 3 0 0 1 6 0Zm6 3a2.25 2.25 0 1 1-4.5 0 2.25 2.25 0 0 1 4.5 0Zm-13.5 0a2.25 2.25 0 1 1-4.5 0 2.25 2.25 0 0 1 4.5 0Z" />
    </symbol>

    <!-- modalEditProduit -->
    <symbol id="trash" viewBox="0 0 24 24" fill="none" stroke="currentColor"
        stroke-width="1.5">
        <path stroke-linecap="round" stroke-linejoin="round"
            d="m14.74 9-.346 9m-4.788 0L9.26 9m9.968-3.21c.342.052.682.107 1.022.166m-1.022-.165L18.16 19.673a2.25 2.25 0 0 1-2.244 2.077H8.084a2.25 2.25 0 0 1-2.244-2.077L4.772 5.79m14.456 0a48.108 48.108 0 0 0-3.478-.397m-12 .562c.34-.059.68-.114 1.022-.165m0 0a48.11 48.11 0 0 1 3.478-.397m7.5 0v-.916c0-1.18-.91-2.164-2.09-2.201a51.964 51.964 0 0 0-3.32 0c-1.18.037-2.09 1.022-2.09 2.201v.916m7.5 0a48.667 48。667 0 0 0-7。5 0" />
    </symbol>

    <!-- FormsInputs -->
    <symbol id="arrowDown" viewBox="0 0 24 24" fill="none" stroke="currentColor"
        stroke-width="2">
        <path stroke-linecap="round" stroke-linejoin="round" d="m19.5 8.25-7.5 7.5-7.5-7.5" />
    </symbol>

    <symbol id="eyeClose" viewBox="0 0 24 24" fill="none" stroke="currentColor"
        stroke-width="1.5">
        <path stroke-linecap="round" stroke-linejoin="round"
            d="M3.98 8.223A10.477 10.477 0 0 0 1.934 12C3.226 16.338 7.244 19.5 12 19.5c.993 0 1.953-.138 2.863-.395M6.228 6.228A10.451 10.451 0 0 1 12 4.5c4.756 0 8.773 3.162 10.065 7.498a10.522 10.522 0 0 1-4.293 5.774M6.228 6.228 3 3m3.228 3.228 3.65 3.65m7.894 7.894L21 21m-3.228-3.228-3.65-3.65m0 0a3 3 0 1 0-4.243-4.243m4.242 4.242L9.88 9.88" />
    </symbol>

    <symbol id="eyeOpen" viewBox="0 0 24 24" fill="none" stroke="currentColor"
        stroke-width="1.5">
        <path stroke-linecap="round" stroke-linejoin="round"
            d="M2.036 12.322a1 1 0 0 1 0-.639C3.423 7.51 7.36 4.5 12 4.5c4.638 0 8.573 3.007 9.963 7.178.07.207.07.431 0 .639C20.577 16.49 16.64 19.5 12 19.5c-4.638 0-8.573-3.007-9.963-7.178Z" />
        <path stroke-linecap="round" stroke-linejoin="round" d="M15 12a3 3 0 1 1-6 0 3 3 0 0 1 6 0" />
    </symbol>

    <!-- ProfilPage -->
    <symbol id="logout" viewBox="0 0 24 24" fill="none" stroke="currentColor"
            stroke-width="1.5">
        <path stroke-linecap="round" stroke-linejoin="round"
              d="m17 16l4-4m0 0l-4-4m4 4H7m6 4v1a3 3 0 0 1-3 3H6a3 3 0 0 1-3-3V7a3 3 0 0 1 3-3h4a3 3 0 0 1 3 3v1"/>
    </symbol>
</svg>